<?xml version="1.0" standalone="no"?>
<!DOCTYPE svg PUBLIC "-//W3C//DTD SVG 20010904//EN"
 "http://www.w3.org/TR/2001/REC-SVG-20010904/DTD/svg10.dtd">
<svg version="1.0" xmlns="http://www.w3.org/2000/svg"
 width="302.000000pt" height="302.000000pt" viewBox="0 0 302.000000 302.000000"
 preserveAspectRatio="xMidYMid meet">
<metadata>
Created by potrace 1.11, written by Peter Selinger 2001-2013
</metadata>
<g transform="translate(0.000000,302.000000) scale(0.100000,-0.100000)"
fill="#000000" stroke="none">
<path d="M1348 3015 c-2 -2 -19 -6 -38 -9 -95 -13 -118 -19 -203 -48 -432
-146 -741 -483 -849 -923 -18 -74 -22 -120 -22 -260 -1 -238 14 -325 94 -525
58 -147 219 -419 290 -490 3 -3 25 -30 50 -60 172 -212 443 -455 684 -614 125
-82 141 -88 185 -68 61 28 227 142 341 233 195 157 356 318 513 510 50 62 174
253 214 329 85 167 143 330 159 453 3 23 9 60 13 82 11 66 3 265 -14 345 -3
14 -10 45 -15 70 -5 25 -23 85 -40 134 -110 312 -335 565 -636 715 -103 52
-244 98 -353 115 -77 13 -363 21 -373 11z m804 -429 c0 -4 -64 -73 -142 -152
-97 -99 -140 -149 -136 -160 9 -23 0 -31 269 219 62 58 72 63 81 49 5 -9 -41
-62 -191 -215 -73 -74 -103 -112 -99 -123 3 -9 10 -14 15 -12 7 2 215 196 307
286 20 19 37 5 22 -17 -7 -10 -58 -67 -114 -127 -56 -60 -115 -125 -133 -144
-30 -34 -36 -55 -14 -55 6 0 77 64 158 143 173 168 215 181 86 26 -14 -17 -44
-53 -66 -80 -98 -119 -163 -189 -203 -217 -38 -28 -52 -31 -131 -35 l-89 -4
-101 -102 -102 -102 102 -95 c56 -52 107 -99 113 -104 43 -41 240 -205 331
-275 61 -46 112 -87 115 -90 3 -3 22 -19 42 -34 52 -39 64 -80 41 -141 -13
-34 -28 -54 -50 -66 -18 -10 -33 -17 -33 -14 0 2 -13 0 -29 -5 -42 -12 -78 11
-133 83 -26 34 -57 75 -70 91 -13 16 -52 65 -87 110 -36 45 -92 112 -125 151
-72 83 -57 66 -184 203 l-103 110 -64 -66 c-74 -78 -89 -94 -171 -188 -140
-158 -163 -185 -292 -351 -122 -157 -132 -163 -229 -127 -37 13 -44 21 -58 65
-24 73 -15 106 43 149 26 19 49 37 52 40 3 3 34 28 70 55 80 61 98 76 119 95
9 8 32 27 51 41 19 15 44 35 56 45 12 11 50 44 84 74 35 30 68 60 74 65 6 6
47 44 91 85 44 41 84 80 88 87 6 10 -23 45 -93 114 l-102 101 -42 -8 c-22 -5
-69 -9 -103 -9 -52 0 -68 4 -105 30 -80 57 -172 189 -198 286 -31 113 8 206
93 225 115 26 283 -44 396 -165 56 -61 67 -112 45 -216 -8 -33 -13 -64 -14
-68 0 -5 47 -55 104 -111 l104 -103 96 96 c53 53 99 100 103 104 4 5 8 43 9
85 0 48 7 88 17 107 26 50 151 171 287 277 19 15 55 43 80 62 43 33 61 40 62
22z"/>
</g>
</svg>
